<svg  viewBox="0 0 173 27" fill="none" xmlns="http://www.w3.org/2000/svg">
<path d="M21.257 12.462C21.731 13.082 21.731 13.919 21.257 14.538C19.764 16.487 16.182 20.5 12 20.5C7.818 20.5 4.236 16.487 2.743 14.538C2.51238 14.2411 2.38719 13.8759 2.38719 13.5C2.38719 13.1241 2.51238 12.7589 2.743 12.462C4.236 10.513 7.818 6.5 12 6.5C16.182 6.5 19.764 10.513 21.257 12.462V12.462Z" stroke="white" stroke-width="2" stroke-linecap="round" stroke-linejoin="round"/>
<path d="M12 16.5C13.6569 16.5 15 15.1569 15 13.5C15 11.8431 13.6569 10.5 12 10.5C10.3431 10.5 9 11.8431 9 13.5C9 15.1569 10.3431 16.5 12 16.5Z" stroke="white" stroke-width="2" stroke-linecap="round" stroke-linejoin="round"/>
<path d="M47.08 6.22C47.1467 6.07333 47.24 5.96 47.36 5.88C47.4933 5.8 47.6333 5.76 47.78 5.76C47.9933 5.76 48.18 5.83333 48.34 5.98C48.5133 6.11333 48.6 6.28 48.6 6.48C48.6 6.58667 48.5733 6.69333 48.52 6.8L42.78 19.56C42.7 19.7333 42.58 19.8667 42.42 19.96C42.26 20.0533 42.0867 20.1 41.9 20.1C41.7133 20.1 41.54 20.0533 41.38 19.96C41.22 19.8667 41.1 19.7333 41.02 19.56L35.3 6.8C35.26 6.69333 35.24 6.59333 35.24 6.5C35.24 6.28667 35.3267 6.11333 35.5 5.98C35.6733 5.83333 35.8667 5.76 36.08 5.76C36.4 5.76 36.6333 5.91333 36.78 6.22L41.94 17.88L47.08 6.22ZM51.1481 20.1C50.9081 20.1 50.7081 20.0333 50.5481 19.9C50.4015 19.7533 50.3281 19.5533 50.3281 19.3V10.86C50.3281 10.6067 50.4015 10.4133 50.5481 10.28C50.7081 10.1333 50.9081 10.06 51.1481 10.06C51.3881 10.06 51.5815 10.1333 51.7281 10.28C51.8748 10.4133 51.9481 10.6067 51.9481 10.86V19.3C51.9481 19.5667 51.8748 19.7667 51.7281 19.9C51.5815 20.0333 51.3881 20.1 51.1481 20.1ZM51.1481 7.96C50.8281 7.96 50.5681 7.86667 50.3681 7.68C50.1681 7.49333 50.0681 7.24667 50.0681 6.94C50.0681 6.64667 50.1681 6.40667 50.3681 6.22C50.5681 6.03333 50.8281 5.94 51.1481 5.94C51.4681 5.94 51.7281 6.03333 51.9281 6.22C52.1281 6.40667 52.2281 6.64667 52.2281 6.94C52.2281 7.24667 52.1281 7.49333 51.9281 7.68C51.7281 7.86667 51.4681 7.96 51.1481 7.96ZM62.5166 17.74C62.6632 17.74 62.7899 17.8 62.8966 17.92C63.0032 18.04 63.0566 18.1933 63.0566 18.38C63.0566 18.7133 62.8232 19.02 62.3566 19.3C61.8766 19.58 61.3699 19.7933 60.8366 19.94C60.3032 20.0733 59.7832 20.14 59.2766 20.14C57.7699 20.14 56.5766 19.6933 55.6966 18.8C54.8299 17.9067 54.3966 16.6733 54.3966 15.1C54.3966 14.1 54.5899 13.22 54.9766 12.46C55.3632 11.6867 55.9032 11.0867 56.5966 10.66C57.3032 10.2333 58.1032 10.02 58.9966 10.02C60.2632 10.02 61.2699 10.4333 62.0166 11.26C62.7632 12.0867 63.1366 13.2067 63.1366 14.62C63.1366 14.8867 63.0832 15.08 62.9766 15.2C62.8699 15.32 62.6966 15.38 62.4566 15.38H56.0166C56.1366 17.6733 57.2232 18.82 59.2766 18.82C59.7966 18.82 60.2432 18.7533 60.6166 18.62C60.9899 18.4733 61.3899 18.28 61.8166 18.04C62.1632 17.84 62.3966 17.74 62.5166 17.74ZM59.0166 11.28C58.1632 11.28 57.4766 11.5467 56.9566 12.08C56.4499 12.6133 56.1499 13.3667 56.0566 14.34H61.7166C61.6899 13.3533 61.4432 12.6 60.9766 12.08C60.5099 11.5467 59.8566 11.28 59.0166 11.28ZM78.7263 10.58C78.8596 10.26 79.0796 10.1 79.3863 10.1C79.5863 10.1 79.7663 10.1667 79.9263 10.3C80.0863 10.4333 80.1663 10.6 80.1663 10.8C80.1663 10.8933 80.1463 10.9933 80.1063 11.1L76.7863 19.5C76.7063 19.6733 76.5863 19.8133 76.4263 19.92C76.2796 20.0133 76.1129 20.06 75.9263 20.06C75.7529 20.06 75.5863 20.0133 75.4263 19.92C75.2796 19.8133 75.1663 19.6733 75.0863 19.5L72.3263 12.48L69.5863 19.5C69.5196 19.6733 69.4063 19.8133 69.2463 19.92C69.0863 20.0133 68.9129 20.06 68.7263 20.06C68.5529 20.06 68.3863 20.0133 68.2263 19.92C68.0663 19.8133 67.9463 19.6733 67.8663 19.5L64.5463 11.12C64.5063 11.0133 64.4863 10.92 64.4863 10.84C64.4863 10.6267 64.5729 10.4467 64.7463 10.3C64.9329 10.1533 65.1329 10.08 65.3463 10.08C65.6663 10.08 65.8929 10.24 66.0263 10.56L68.7663 17.94L71.5863 10.62C71.6663 10.4467 71.7729 10.3133 71.9063 10.22C72.0529 10.1267 72.2063 10.08 72.3663 10.08C72.5396 10.08 72.6929 10.1267 72.8263 10.22C72.9729 10.3133 73.0796 10.4467 73.1463 10.62L75.9663 17.92L78.7263 10.58ZM91.3784 10.02C93.8184 10.02 95.0384 11.3 95.0384 13.86V19.3C95.0384 19.54 94.9651 19.7333 94.8184 19.88C94.6851 20.0267 94.4984 20.1 94.2584 20.1C94.0184 20.1 93.8251 20.0267 93.6784 19.88C93.5318 19.7333 93.4584 19.54 93.4584 19.3V18.34C93.2051 18.9133 92.8184 19.36 92.2984 19.68C91.7784 19.9867 91.1784 20.14 90.4984 20.14C89.8718 20.14 89.2918 20.0133 88.7584 19.76C88.2384 19.5067 87.8251 19.1533 87.5184 18.7C87.2118 18.2467 87.0584 17.7467 87.0584 17.2C87.0584 16.4667 87.2451 15.9 87.6184 15.5C87.9918 15.0867 88.6051 14.7933 89.4584 14.62C90.3118 14.4333 91.4984 14.34 93.0184 14.34H93.4584V13.68C93.4584 12.88 93.2918 12.2933 92.9584 11.92C92.6384 11.5467 92.1118 11.36 91.3784 11.36C90.4718 11.36 89.5518 11.6067 88.6184 12.1C88.2584 12.3267 88.0051 12.44 87.8584 12.44C87.6984 12.44 87.5651 12.38 87.4584 12.26C87.3518 12.14 87.2984 11.9867 87.2984 11.8C87.2984 11.6133 87.3518 11.4533 87.4584 11.32C87.5784 11.1733 87.7651 11.0267 88.0184 10.88C88.4851 10.6133 89.0118 10.4067 89.5984 10.26C90.1984 10.1 90.7918 10.02 91.3784 10.02ZM90.7184 18.86C91.5184 18.86 92.1718 18.5933 92.6784 18.06C93.1984 17.5133 93.4584 16.8133 93.4584 15.96V15.38H93.0984C91.9251 15.38 91.0318 15.4333 90.4184 15.54C89.8051 15.6333 89.3651 15.8 89.0984 16.04C88.8451 16.2667 88.7184 16.6067 88.7184 17.06C88.7184 17.58 88.9051 18.0133 89.2784 18.36C89.6651 18.6933 90.1451 18.86 90.7184 18.86ZM98.8239 20.1C98.5839 20.1 98.3839 20.0333 98.2239 19.9C98.0772 19.7533 98.0039 19.5533 98.0039 19.3V6.6C98.0039 6.34667 98.0772 6.15333 98.2239 6.02C98.3839 5.87333 98.5839 5.8 98.8239 5.8C99.0506 5.8 99.2372 5.87333 99.3839 6.02C99.5439 6.15333 99.6239 6.34667 99.6239 6.6V19.3C99.6239 19.5533 99.5439 19.7533 99.3839 19.9C99.2372 20.0333 99.0506 20.1 98.8239 20.1ZM103.472 20.1C103.232 20.1 103.032 20.0333 102.872 19.9C102.726 19.7533 102.652 19.5533 102.652 19.3V6.6C102.652 6.34667 102.726 6.15333 102.872 6.02C103.032 5.87333 103.232 5.8 103.472 5.8C103.699 5.8 103.886 5.87333 104.032 6.02C104.192 6.15333 104.272 6.34667 104.272 6.6V19.3C104.272 19.5533 104.192 19.7533 104.032 19.9C103.886 20.0333 103.699 20.1 103.472 20.1ZM117.357 10.02C118.21 10.02 118.964 10.2267 119.617 10.64C120.27 11.0533 120.777 11.64 121.137 12.4C121.497 13.16 121.677 14.04 121.677 15.04C121.677 16.0533 121.497 16.9467 121.137 17.72C120.777 18.48 120.27 19.0733 119.617 19.5C118.964 19.9267 118.21 20.14 117.357 20.14C116.597 20.14 115.93 19.9733 115.357 19.64C114.797 19.3067 114.37 18.8333 114.077 18.22V19.3C114.077 19.54 114.004 19.7333 113.857 19.88C113.724 20.0267 113.53 20.1 113.277 20.1C113.024 20.1 112.824 20.0267 112.677 19.88C112.53 19.7333 112.457 19.54 112.457 19.3V6.58C112.457 6.35333 112.53 6.16667 112.677 6.02C112.824 5.87333 113.024 5.8 113.277 5.8C113.53 5.8 113.724 5.87333 113.857 6.02C114.004 6.15333 114.077 6.34 114.077 6.58V11.94C114.37 11.3267 114.797 10.8533 115.357 10.52C115.93 10.1867 116.597 10.02 117.357 10.02ZM117.037 18.8C117.984 18.8 118.717 18.4733 119.237 17.82C119.757 17.1533 120.017 16.2267 120.017 15.04C120.017 13.88 119.757 12.98 119.237 12.34C118.717 11.7 117.984 11.38 117.037 11.38C116.09 11.38 115.357 11.7 114.837 12.34C114.33 12.98 114.077 13.8933 114.077 15.08C114.077 16.2667 114.33 17.1867 114.837 17.84C115.357 18.48 116.09 18.8 117.037 18.8ZM128.918 10.06C129.478 10.02 129.758 10.2467 129.758 10.74C129.758 10.9533 129.698 11.1267 129.578 11.26C129.458 11.38 129.251 11.4533 128.958 11.48L128.358 11.54C127.464 11.62 126.798 11.94 126.358 12.5C125.931 13.0467 125.718 13.6933 125.718 14.44V19.3C125.718 19.5667 125.644 19.7667 125.498 19.9C125.351 20.0333 125.158 20.1 124.918 20.1C124.678 20.1 124.478 20.0333 124.318 19.9C124.171 19.7533 124.098 19.5533 124.098 19.3V10.86C124.098 10.6067 124.178 10.4133 124.338 10.28C124.498 10.1333 124.691 10.06 124.918 10.06C125.131 10.06 125.311 10.1333 125.458 10.28C125.604 10.4133 125.678 10.6 125.678 10.84V11.96C125.958 11.3733 126.351 10.9267 126.858 10.62C127.378 10.3133 127.971 10.1333 128.638 10.08L128.918 10.06ZM135.05 10.02C137.49 10.02 138.71 11.3 138.71 13.86V19.3C138.71 19.54 138.637 19.7333 138.49 19.88C138.357 20.0267 138.17 20.1 137.93 20.1C137.69 20.1 137.497 20.0267 137.35 19.88C137.204 19.7333 137.13 19.54 137.13 19.3V18.34C136.877 18.9133 136.49 19.36 135.97 19.68C135.45 19.9867 134.85 20.14 134.17 20.14C133.544 20.14 132.964 20.0133 132.43 19.76C131.91 19.5067 131.497 19.1533 131.19 18.7C130.884 18.2467 130.73 17.7467 130.73 17.2C130.73 16.4667 130.917 15.9 131.29 15.5C131.664 15.0867 132.277 14.7933 133.13 14.62C133.984 14.4333 135.17 14.34 136.69 14.34H137.13V13.68C137.13 12.88 136.964 12.2933 136.63 11.92C136.31 11.5467 135.784 11.36 135.05 11.36C134.144 11.36 133.224 11.6067 132.29 12.1C131.93 12.3267 131.677 12.44 131.53 12.44C131.37 12.44 131.237 12.38 131.13 12.26C131.024 12.14 130.97 11.9867 130.97 11.8C130.97 11.6133 131.024 11.4533 131.13 11.32C131.25 11.1733 131.437 11.0267 131.69 10.88C132.157 10.6133 132.684 10.4067 133.27 10.26C133.87 10.1 134.464 10.02 135.05 10.02ZM134.39 18.86C135.19 18.86 135.844 18.5933 136.35 18.06C136.87 17.5133 137.13 16.8133 137.13 15.96V15.38H136.77C135.597 15.38 134.704 15.4333 134.09 15.54C133.477 15.6333 133.037 15.8 132.77 16.04C132.517 16.2667 132.39 16.6067 132.39 17.06C132.39 17.58 132.577 18.0133 132.95 18.36C133.337 18.6933 133.817 18.86 134.39 18.86ZM146.576 10.02C148.909 10.02 150.076 11.3067 150.076 13.88V19.3C150.076 19.5533 150.002 19.7533 149.856 19.9C149.722 20.0333 149.529 20.1 149.276 20.1C149.022 20.1 148.822 20.0333 148.676 19.9C148.529 19.7533 148.456 19.5533 148.456 19.3V13.98C148.456 13.0733 148.276 12.4133 147.916 12C147.569 11.5867 147.009 11.38 146.236 11.38C145.342 11.38 144.629 11.6533 144.096 12.2C143.562 12.7467 143.296 13.4867 143.296 14.42V19.3C143.296 19.5533 143.222 19.7533 143.076 19.9C142.942 20.0333 142.749 20.1 142.496 20.1C142.242 20.1 142.042 20.0333 141.896 19.9C141.749 19.7533 141.676 19.5533 141.676 19.3V10.86C141.676 10.62 141.749 10.4267 141.896 10.28C142.042 10.1333 142.242 10.06 142.496 10.06C142.736 10.06 142.922 10.1333 143.056 10.28C143.202 10.4267 143.276 10.6133 143.276 10.84V11.86C143.596 11.26 144.042 10.8067 144.616 10.5C145.189 10.18 145.842 10.02 146.576 10.02ZM160.863 5.8C161.116 5.8 161.316 5.87333 161.463 6.02C161.61 6.16667 161.683 6.35333 161.683 6.58V19.3C161.683 19.54 161.61 19.7333 161.463 19.88C161.316 20.0267 161.116 20.1 160.863 20.1C160.61 20.1 160.41 20.0267 160.263 19.88C160.13 19.7333 160.063 19.54 160.063 19.3V18.22C159.77 18.8333 159.336 19.3067 158.763 19.64C158.203 19.9733 157.543 20.14 156.783 20.14C155.93 20.14 155.176 19.9267 154.523 19.5C153.87 19.0733 153.363 18.48 153.003 17.72C152.643 16.9467 152.463 16.0533 152.463 15.04C152.463 14.04 152.643 13.16 153.003 12.4C153.363 11.64 153.87 11.0533 154.523 10.64C155.176 10.2267 155.93 10.02 156.783 10.02C157.543 10.02 158.203 10.1867 158.763 10.52C159.336 10.8533 159.77 11.3267 160.063 11.94V6.58C160.063 6.34 160.13 6.15333 160.263 6.02C160.41 5.87333 160.61 5.8 160.863 5.8ZM157.103 18.8C158.05 18.8 158.776 18.48 159.283 17.84C159.803 17.1867 160.063 16.2667 160.063 15.08C160.063 13.8933 159.803 12.98 159.283 12.34C158.776 11.7 158.05 11.38 157.103 11.38C156.156 11.38 155.416 11.7 154.883 12.34C154.363 12.98 154.103 13.88 154.103 15.04C154.103 16.2267 154.363 17.1533 154.883 17.82C155.416 18.4733 156.156 18.8 157.103 18.8ZM167.964 20.14C167.35 20.14 166.764 20.0667 166.204 19.92C165.657 19.7733 165.17 19.5667 164.744 19.3C164.504 19.14 164.33 18.9933 164.224 18.86C164.13 18.7133 164.084 18.54 164.084 18.34C164.084 18.1667 164.13 18.0267 164.224 17.92C164.33 17.8 164.464 17.74 164.624 17.74C164.784 17.74 165.017 17.84 165.324 18.04C165.724 18.28 166.117 18.4733 166.504 18.62C166.904 18.7533 167.397 18.82 167.984 18.82C168.704 18.82 169.264 18.6933 169.664 18.44C170.064 18.1867 170.264 17.82 170.264 17.34C170.264 17.0467 170.19 16.8133 170.044 16.64C169.897 16.4533 169.644 16.2933 169.284 16.16C168.924 16.0133 168.397 15.8667 167.704 15.72C166.53 15.4667 165.69 15.1267 165.184 14.7C164.677 14.2733 164.424 13.6933 164.424 12.96C164.424 12.3867 164.584 11.88 164.904 11.44C165.224 11 165.664 10.6533 166.224 10.4C166.797 10.1467 167.444 10.02 168.164 10.02C168.684 10.02 169.184 10.0933 169.664 10.24C170.157 10.3733 170.59 10.5667 170.964 10.82C171.417 11.14 171.644 11.4733 171.644 11.82C171.644 11.9933 171.59 12.14 171.484 12.26C171.377 12.38 171.25 12.44 171.104 12.44C170.944 12.44 170.704 12.3267 170.384 12.1C170.01 11.86 169.657 11.6733 169.324 11.54C168.99 11.4067 168.577 11.34 168.084 11.34C167.457 11.34 166.95 11.48 166.564 11.76C166.19 12.04 166.004 12.4133 166.004 12.88C166.004 13.1733 166.07 13.4133 166.204 13.6C166.35 13.7733 166.584 13.9333 166.904 14.08C167.237 14.2133 167.71 14.3467 168.324 14.48C169.23 14.68 169.93 14.9 170.424 15.14C170.93 15.38 171.29 15.6733 171.504 16.02C171.717 16.3667 171.824 16.8067 171.824 17.34C171.824 18.18 171.47 18.86 170.764 19.38C170.057 19.8867 169.124 20.14 167.964 20.14Z" fill="white"/>
<path d="M35 22H172.784V23H35V22Z" fill="white"/>
</svg>
